<?xml version="1.0" encoding="UTF-8" standalone="no"?>
<!-- Created with Inkscape (http://www.inkscape.org/) -->

<svg
   version="1.1"
   id="svg2"
   xml:space="preserve"
   width="1128.1121"
   height="1159.6573"
   viewBox="0 0 1128.1121 1159.6573"
   sodipodi:docname="pixel77-free-vector-question-mark-concept.ai"
   xmlns:inkscape="http://www.inkscape.org/namespaces/inkscape"
   xmlns:sodipodi="http://sodipodi.sourceforge.net/DTD/sodipodi-0.dtd"
   xmlns="http://www.w3.org/2000/svg"
   xmlns:svg="http://www.w3.org/2000/svg"><defs
     id="defs6"><clipPath
       clipPathUnits="userSpaceOnUse"
       id="clipPath18"><path
         d="M 0,869.743 H 846.084 V 0 H 0 Z"
         id="path16" /></clipPath></defs><sodipodi:namedview
     id="namedview4"
     pagecolor="#ffffff"
     bordercolor="#666666"
     borderopacity="1.0"
     inkscape:pageshadow="2"
     inkscape:pageopacity="0.0"
     inkscape:pagecheckerboard="0" /><g
     id="g8"
     inkscape:groupmode="layer"
     inkscape:label="pixel77-free-vector-question-mark-concept"
     transform="matrix(1.3333333,0,0,-1.3333333,0,1159.6573)"><path
       d="M 0,0 H 846.085 V 869.743 H 0 Z"
       style="fill:#ededed;fill-opacity:1;fill-rule:nonzero;stroke:none"
       id="path10" /><g
       id="g12"><g
         id="g14"
         clip-path="url(#clipPath18)"><g
           id="g20"
           transform="translate(482.4272,219.6504)"><path
             d="m 0,0 c -39.114,0 -66.902,-27.818 -66.902,-68.4 0,-39.086 27.057,-68.403 66.902,-68.403 41.314,0 67.639,29.317 67.639,68.403 C 66.906,-27.818 40.583,0 0,0"
             style="fill:#282828;fill-opacity:1;fill-rule:nonzero;stroke:none"
             id="path22" /></g><g
           id="g24"
           transform="translate(503.1284,786.895)"><path
             d="m 0,0 c -71.074,0 -180.857,-27.034 -215.722,-83.688 l 65.921,-85.683 c 26.004,18.055 66.112,30.037 99.117,30.037 50.057,-0.976 73.036,-25.024 73.036,-60.034 0,-33.054 -25.994,-66.106 -58.034,-105.111 -21.527,-25.343 -36.627,-50.455 -46.214,-75.34 -18.275,-41.199 -115.448,-50.959 -132.346,3.958 -17.129,55.668 -39.621,93.986 -59.477,67.859 0,0 -3.134,-9.408 -19.856,-26.128 -16.722,-16.721 -12.54,-29.264 0,-39.715 12.541,-10.45 22.991,-13.585 19.856,-19.856 -3.135,-6.272 -11.495,-14.632 -10.45,-21.947 1.045,-7.317 11.011,-19.856 11.011,-19.856 0,0 -9.891,-10.45 0,-24.039 9.891,-13.586 14.073,-11.495 8.846,-27.17 -5.227,-15.678 -7.349,-43.465 14.631,-58.528 33.959,-23.271 144.147,9.461 149.25,10.664 12.58,2.973 24.993,6.541 37.355,10.317 24.229,7.4 48.466,14.461 71.92,24.142 0.341,0.143 0.651,0.272 0.934,0.387 0.298,0.131 0.623,0.273 0.99,0.436 3.145,1.377 6.292,2.761 9.421,4.183 5.208,2.371 10.408,4.77 15.574,7.235 0.807,0.386 1.612,0.785 2.417,1.177 h 1.213 v 13.039 c 0.129,7.041 0.279,14.328 0.458,21.862 2.949,38.133 19.124,72.444 50.651,108.277 37.977,42.018 99.07,91.139 99.07,167.227 C 189.572,-93.188 132.222,0 0,0"
             style="fill:#282828;fill-opacity:1;fill-rule:nonzero;stroke:none"
             id="path26" /></g></g></g></g></svg>
